<svg xmlns="http://www.w3.org/2000/svg" xmlns:xlink="http://www.w3.org/1999/xlink" width="500" zoomAndPan="magnify" viewBox="0 0 375 374.999991" height="500" preserveAspectRatio="xMidYMid meet" version="1.2"><defs><clipPath id="e92dfcbc9a"><path d="M 83.253906 31.089844 L 370.503906 31.089844 L 370.503906 343.839844 L 83.253906 343.839844 Z M 83.253906 31.089844 "/></clipPath><clipPath id="0e8dd0b88f"><path d="M 83.253906 67 L 323 67 L 323 314 L 83.253906 314 Z M 83.253906 67 "/></clipPath><clipPath id="4d6fc07f2b"><path d="M 176 80 L 361 80 L 361 343.839844 L 176 343.839844 Z M 176 80 "/></clipPath><clipPath id="6b05a32f86"><rect x="0" width="105" y="0" height="264"/></clipPath><clipPath id="3de07bd1f5"><rect x="0" width="136" y="0" height="44"/></clipPath></defs><g id="b4e741613d"><g clip-rule="nonzero" clip-path="url(#e92dfcbc9a)"><path style=" stroke:none;fill-rule:evenodd;fill:#299ad6;fill-opacity:1;" d="M 110.714844 314.285156 L 83.648438 343.839844 L 151.527344 343.839844 L 170.4375 316.792969 L 325.847656 94.417969 L 344.742188 67.371094 L 370.109375 31.089844 L 336.871094 67.371094 L 312.097656 94.417969 Z M 110.714844 314.285156 "/></g><g clip-rule="nonzero" clip-path="url(#0e8dd0b88f)"><path style=" stroke:none;fill-rule:evenodd;fill:#315788;fill-opacity:1;" d="M 110.714844 94.417969 L 291.222656 94.417969 L 322.824219 67.371094 L 83.648438 67.371094 L 83.648438 313.800781 L 110.714844 284.257812 L 260.578125 120.636719 L 110.714844 248.875 Z M 110.714844 94.417969 "/></g><g clip-rule="nonzero" clip-path="url(#4d6fc07f2b)"><path style=" stroke:none;fill-rule:evenodd;fill:#315788;fill-opacity:1;" d="M 333.246094 119.269531 L 333.246094 316.792969 L 218.652344 316.792969 L 318.703125 140.058594 L 176.28125 343.839844 L 360.300781 343.839844 L 360.300781 80.550781 Z M 333.246094 119.269531 "/></g><g transform="matrix(1,0,0,1,0,67)"><g clip-path="url(#6b05a32f86)"><g style="fill:#299ad6;fill-opacity:1;"><g transform="translate(67.467052, 261.918165)"><path style="stroke:none" d="M -49.25 -3.0625 L -49.25 -16.5 L 0 -16.5 L 0 -3.0625 Z M -49.25 -3.0625 "/></g></g><g style="fill:#299ad6;fill-opacity:1;"><g transform="translate(67.467052, 231.616887)"><path style="stroke:none" d="M -49.25 -3.84375 L -49.25 -26.46875 C -49.25 -33.988281 -46.078125 -37.75 -39.734375 -37.75 L -9.515625 -37.75 C -3.171875 -37.75 0 -33.988281 0 -26.46875 L 0 -3.84375 Z M -10.515625 -24.3125 L -38.75 -24.3125 C -39.875 -24.3125 -40.4375 -23.675781 -40.4375 -22.40625 L -40.4375 -17.265625 L -8.828125 -17.265625 L -8.828125 -22.40625 C -8.828125 -23.675781 -9.390625 -24.3125 -10.515625 -24.3125 Z M -10.515625 -24.3125 "/></g></g><g style="fill:#299ad6;fill-opacity:1;"><g transform="translate(67.467052, 180.298359)"><path style="stroke:none" d="M -49.25 -3.0625 L -49.25 -25.859375 C -49.25 -33.367188 -46.078125 -37.125 -39.734375 -37.125 L -25.625 -37.125 C -19.28125 -37.125 -16.109375 -33.367188 -16.109375 -25.859375 L -16.109375 -16.5 L 0 -16.5 L 0 -3.0625 Z M -27.390625 -23.703125 L -37.96875 -23.703125 C -39.09375 -23.703125 -39.65625 -23.0625 -39.65625 -21.78125 L -39.65625 -16.5 L -25.703125 -16.5 L -25.703125 -21.78125 C -25.703125 -23.0625 -26.265625 -23.703125 -27.390625 -23.703125 Z M -27.390625 -23.703125 "/></g></g><g style="fill:#299ad6;fill-opacity:1;"><g transform="translate(67.467052, 130.897473)"><path style="stroke:none" d="M -9.59375 -16.5 L -9.59375 -33.296875 L 0 -33.296875 L 0 -3.0625 L -49.25 -3.0625 L -49.25 -32.609375 L -39.65625 -32.609375 L -39.65625 -16.5 L -29.609375 -16.5 L -29.609375 -30.375 L -20.03125 -30.375 L -20.03125 -16.5 Z M -9.59375 -16.5 "/></g></g><g style="fill:#299ad6;fill-opacity:1;"><g transform="translate(67.467052, 85.715378)"><path style="stroke:none" d="M -9.59375 -16.5 L -9.59375 -31.765625 L 0 -31.765625 L 0 -3.0625 L -49.25 -3.0625 L -49.25 -16.5 Z M -9.59375 -16.5 "/></g></g><g style="fill:#299ad6;fill-opacity:1;"><g transform="translate(67.467052, 43.217954)"><path style="stroke:none" d="M -9.59375 -16.5 L -9.59375 -31.765625 L 0 -31.765625 L 0 -3.0625 L -49.25 -3.0625 L -49.25 -16.5 Z M -9.59375 -16.5 "/></g></g></g></g><g transform="matrix(1,0,0,1,114,91)"><g clip-path="url(#3de07bd1f5)"><g style="fill:#299ad6;fill-opacity:1;"><g transform="translate(1.488353, 29.028192)"><path style="stroke:none" d="M 14.078125 -12.03125 L 8.828125 -12.03125 L 8.828125 -15.125 C 8.828125 -15.5625 8.578125 -15.78125 8.078125 -15.78125 L 7.03125 -15.78125 C 6.53125 -15.78125 6.28125 -15.5625 6.28125 -15.125 L 6.28125 -4.09375 C 6.28125 -3.65625 6.53125 -3.4375 7.03125 -3.4375 L 8.078125 -3.4375 C 8.578125 -3.4375 8.828125 -3.65625 8.828125 -4.09375 L 8.828125 -7.0625 L 14.078125 -7.0625 L 14.078125 -3.71875 C 14.078125 -1.238281 12.609375 0 9.671875 0 L 5.453125 0 C 2.515625 0 1.046875 -1.238281 1.046875 -3.71875 L 1.046875 -15.5 C 1.046875 -17.976562 2.515625 -19.21875 5.453125 -19.21875 L 9.671875 -19.21875 C 12.609375 -19.21875 14.078125 -17.976562 14.078125 -15.5 Z M 14.078125 -12.03125 "/></g></g><g style="fill:#299ad6;fill-opacity:1;"><g transform="translate(20.493232, 29.028192)"><path style="stroke:none" d="M 10.125 -19.21875 L 15.265625 -19.21875 L 15.265625 0 L 10.125 0 L 10.125 -7.609375 L 6.34375 -7.609375 L 6.34375 0 L 1.203125 0 L 1.203125 -19.21875 L 6.34375 -19.21875 L 6.34375 -11.34375 L 10.125 -11.34375 Z M 10.125 -19.21875 "/></g></g><g style="fill:#299ad6;fill-opacity:1;"><g transform="translate(41.144112, 29.028192)"><path style="stroke:none" d="M 6.4375 -3.75 L 13 -3.75 L 13 0 L 1.203125 0 L 1.203125 -19.21875 L 12.71875 -19.21875 L 12.71875 -15.484375 L 6.4375 -15.484375 L 6.4375 -11.5625 L 11.859375 -11.5625 L 11.859375 -7.8125 L 6.4375 -7.8125 Z M 6.4375 -3.75 "/></g></g><g style="fill:#299ad6;fill-opacity:1;"><g transform="translate(58.772336, 29.028192)"><path style="stroke:none" d="M 14.078125 -12.03125 L 8.828125 -12.03125 L 8.828125 -15.125 C 8.828125 -15.5625 8.578125 -15.78125 8.078125 -15.78125 L 7.03125 -15.78125 C 6.53125 -15.78125 6.28125 -15.5625 6.28125 -15.125 L 6.28125 -4.09375 C 6.28125 -3.65625 6.53125 -3.4375 7.03125 -3.4375 L 8.078125 -3.4375 C 8.578125 -3.4375 8.828125 -3.65625 8.828125 -4.09375 L 8.828125 -7.0625 L 14.078125 -7.0625 L 14.078125 -3.71875 C 14.078125 -1.238281 12.609375 0 9.671875 0 L 5.453125 0 C 2.515625 0 1.046875 -1.238281 1.046875 -3.71875 L 1.046875 -15.5 C 1.046875 -17.976562 2.515625 -19.21875 5.453125 -19.21875 L 9.671875 -19.21875 C 12.609375 -19.21875 14.078125 -17.976562 14.078125 -15.5 Z M 14.078125 -12.03125 "/></g></g><g style="fill:#299ad6;fill-opacity:1;"><g transform="translate(77.777215, 29.028192)"><path style="stroke:none" d="M 11.921875 -9.8125 L 15.6875 0 L 10.0625 0 L 6.46875 -9.8125 L 10.03125 -19.21875 L 15.65625 -19.21875 Z M 1.203125 0 L 1.203125 -19.21875 L 6.4375 -19.21875 L 6.4375 0 Z M 1.203125 0 "/></g></g><g style="fill:#299ad6;fill-opacity:1;"><g transform="translate(97.829552, 29.028192)"><path style="stroke:none" d="M 6.4375 -3.75 L 13 -3.75 L 13 0 L 1.203125 0 L 1.203125 -19.21875 L 12.71875 -19.21875 L 12.71875 -15.484375 L 6.4375 -15.484375 L 6.4375 -11.5625 L 11.859375 -11.5625 L 11.859375 -7.8125 L 6.4375 -7.8125 Z M 6.4375 -3.75 "/></g></g><g style="fill:#299ad6;fill-opacity:1;"><g transform="translate(115.457776, 29.028192)"><path style="stroke:none" d="M 6.4375 -6.828125 L 6.4375 0 L 1.203125 0 L 1.203125 -19.21875 L 10.09375 -19.21875 C 13.019531 -19.21875 14.484375 -17.976562 14.484375 -15.5 L 14.484375 -10.53125 C 14.484375 -8.632812 13.628906 -7.46875 11.921875 -7.03125 L 15.453125 0 L 9.8125 0 L 6.765625 -6.828125 Z M 8.5 -15.484375 L 6.4375 -15.484375 L 6.4375 -10.390625 L 8.5 -10.390625 C 9 -10.390625 9.25 -10.609375 9.25 -11.046875 L 9.25 -14.8125 C 9.25 -15.257812 9 -15.484375 8.5 -15.484375 Z M 8.5 -15.484375 "/></g></g></g></g></g></svg>